<svg version="1.2" xmlns="http://www.w3.org/2000/svg" viewBox="0 0 500 500" width="500" height="500">
	<style>
		.s0 { fill: #ffffff } 
		.s1 { fill: #a71b24 } 
	</style>
	<path id="&lt;Compound Path&gt;" fill-rule="evenodd" class="s0" d="m101.8 110.96c40.53-0.2 81.07-0.23 121.64 0.05 22.89 0.65 47.37 4.61 65.77 19.3 29.96 24.51 35.04 75.04 7.65 103.29-17.14 19.01-43.19 26.13-67.92 27.59-21.44 0.97-42.91 0.33-64.38 0.58-0.45 20.16-0.37 40.34-0.09 60.5 0.48 8.43 0.84 17.76 6.37 24.71 5.44 6.2 14.32 6.95 21.69 9.71-2.68 5.28-9.1 3.16-13.65 3.72-25.99-0.42-51.98 0.39-77.92-0.48 2.99-8.48 13.99-6.36 19.24-12.56 6.17-6.7 6.42-16.42 6.53-25.02-0.03-57.73-0.25-115.44 0.03-173.17-0.26-8.63 0.05-18.68-6.42-25.27-4.75-5.08-12.01-5.78-18.35-7.42-0.05-1.37-0.14-4.14-0.19-5.53zm62.48 9.46c-0.23 43.86 0.17 87.72 0.03 131.58 12.39 0.2 24.82 0.22 37.24-0.11 0.19-40.12-0.2-80.24-0.06-120.33 11.87 0.64 24.38 1.03 35.15 6.73q4.69 2.39 4.19 7.96c0.75 32.69-0.36 65.38 0.5 98.07 26.44-13.17 36.69-45.5 31.41-73.14-2.26-18.29-13.09-35.79-30.15-43.61-24.4-11.64-52.26-6.53-78.31-7.15z"/>
	<path id="&lt;Path&gt;" class="s0" d="m278.49 110.46c24.9-0.62 51.12 2.9 71.92 17.67 40.59 25.21 46.43 88.95 13.85 122.95-10.25 11.5-24.46 18.12-38.42 23.84 15.08 26.58 33.06 51.34 49.02 77.36 7.85 12.62 17.84 25.66 33.09 29.34 4.1 1.15 12.56 3.36 7.23 8.91-20.6 0.48-41.21-0.03-61.81 0.11-23.56-36.04-46.4-72.56-69.41-108.96q-21.73-0.04-43.38-0.34c0.5 23.87 0 47.77 0.17 71.67 0.08 7.54 0.14 15.88 5.11 22.11 5.22 6.53 14.07 7.76 21.6 10.22-0.05 1.39-0.11 4.19-0.16 5.58-29.85-0.86-59.78 0.59-89.57-0.86l-1.31-4c10.64-3.6 24.21-8.43 24.77-21.83 1.36-30.54-0.06-61.22 0.47-91.82 22.11-0.56 44.25-0.67 66.42-0.75 19.99 0.11 40.93-5.48 55.67-19.55 16.08-16.83 21.52-41.29 20.18-63.96-2.04-21.8-10.69-44.78-29.59-57.37-11.62-7.37-24.09-13.21-35.85-20.32z"/>
	<path id="&lt;Compound Path&gt;" fill-rule="evenodd" class="s1" d="m87.84 2.91c26.41-4.13 53.27-1.47 79.9-2.26 72.53 0 145.09-0.05 217.65-0.08 49.83-3.38 98.33 32.11 110.64 80.38 6.03 20.38 4.16 41.82 4.38 62.78-0.11 82.81 0.14 165.59-0.16 248.36-0.65 57.21-51.57 108.97-109.3 107.74q-128.48 0-256.96 0.08c-16.67-0.14-33.64 1.2-49.92-3.23-35.43-9.33-65.52-37.3-76.61-72.37-8.43-21.86-5.94-45.59-6.28-68.45 0.08-82.92-0.14-165.84 0.14-248.73 0.5-49.13 38.25-94.78 86.52-104.22zm13.96 108.05c0.05 1.39 0.14 4.16 0.19 5.53 6.34 1.64 13.6 2.34 18.35 7.42 6.47 6.59 6.16 16.64 6.42 25.27-0.28 57.73-0.06 115.44-0.03 173.17-0.11 8.6-0.36 18.32-6.53 25.02-5.25 6.2-16.25 4.08-19.24 12.56 25.94 0.87 51.93 0.06 77.92 0.48 4.55-0.56 10.97 1.56 13.65-3.72-7.37-2.76-16.25-3.51-21.69-9.71-5.53-6.95-5.89-16.28-6.37-24.71-0.28-20.16-0.36-40.34 0.09-60.5 21.47-0.25 42.94 0.39 64.38-0.58 24.73-1.46 50.78-8.58 67.92-27.59 27.39-28.25 22.31-78.78-7.65-103.29-18.4-14.69-42.88-18.65-65.77-19.3-40.57-0.28-81.11-0.25-121.64-0.05zm176.69-0.5c11.76 7.11 24.23 12.95 35.85 20.32 18.9 12.59 27.55 35.57 29.59 57.37 1.34 22.67-4.1 47.13-20.18 63.96-14.74 14.07-35.68 19.66-55.67 19.55-22.17 0.08-44.31 0.19-66.42 0.75-0.53 30.6 0.89 61.28-0.47 91.82-0.56 13.4-14.13 18.23-24.77 21.83l1.31 4c29.79 1.45 59.72 0 89.57 0.86 0.05-1.39 0.11-4.19 0.16-5.58-7.53-2.46-16.38-3.69-21.6-10.22-4.97-6.23-5.03-14.57-5.11-22.11-0.17-23.9 0.33-47.8-0.17-71.67q21.65 0.3 43.38 0.34c23.01 36.4 45.85 72.92 69.41 108.96 20.6-0.14 41.21 0.37 61.81-0.11 5.33-5.55-3.13-7.76-7.23-8.91-15.25-3.68-25.24-16.72-33.09-29.34-15.96-26.02-33.94-50.78-49.02-77.36 13.96-5.72 28.17-12.34 38.42-23.84 32.58-34 26.74-97.74-13.85-122.95-20.8-14.77-47.02-18.29-71.92-17.67z"/>
	<path id="&lt;Path&gt;" class="s1" d="m164.28 120.42c26.05 0.62 53.91-4.49 78.31 7.15 17.06 7.82 27.89 25.32 30.15 43.61 5.28 27.64-4.97 59.97-31.41 73.14-0.86-32.69 0.25-65.38-0.5-98.07q0.5-5.57-4.19-7.96c-10.77-5.7-23.28-6.09-35.15-6.73-0.14 40.09 0.25 80.21 0.06 120.33-12.42 0.33-24.85 0.31-37.24 0.11 0.14-43.86-0.26-87.72-0.03-131.58z"/>
</svg>