<svg version="1.2" xmlns="http://www.w3.org/2000/svg" viewBox="0 0 2200 2200" width="2200" height="2200">
	<style>
		.s0 { fill: #010101 } 
		.s1 { fill: #a71b24 } 
	</style>
	<path id="&lt;Path&gt;" class="s0" d="m1218.43 191.49c172.37-5.25 351.74 13.99 505.61 97.33 107.98 59.02 194.38 159.19 230.37 277.51 43.72 132.96 33.22 282.97-29.21 408.28-72.35 137.63-208.51 234.89-358.01 272.56 116.05 175.07 233.72 348.97 350.07 523.83 32.56 48.59 66.37 98.35 114.67 132.74 44.66 33.51 99.23 49.61 153.07 61.2 0 15.59 0 31.11-0.07 46.7-147.32 0.07-294.56-0.29-441.8 0-157.15-237.51-312.69-476.04-468.46-714.5-99.23 1.1-198.53 0.08-297.76 1.17 0.29 142.29-0.22 284.65 0.07 426.93 0.22 55.23 0.73 113.95 27.4 163.86 30.82 54.56 97.33 70.37 155.11 76.35 0 15.22-0.08 30.45-0.08 45.75-210.99 0.44-421.98 0.15-633.04 0.22 0-15.45 0.08-30.82 0.29-46.12 50.42-5.17 105.86-16.9 140.83-56.75 33.52-38.11 37.31-91.8 39.13-140.18 0.87-179.88 0.29-359.76-0.08-539.71 146.73 0.58 293.47 0.07 440.2-0.22 85.67-0.95 172.96-5.97 254.48-34.82 112.85-37.82 206.04-128.3 248.8-239.19 43.21-112.41 47.72-237.65 23.32-354.88-24.63-117.08-97.92-224.61-204.07-281.95-31.69-19.67-71.18-22.29-100.76-45.53-45.83-33.88-96.9-60.33-150.08-80.58z"/>
	<path id="&lt;Path&gt;" class="s0" d="m450.46 960.04c0.73-232.77-0.95-465.62 0.65-698.39 1.31 252.3 0.59 504.6 0.59 756.82 0.58 26.45-2.77 53.62 4.15 79.49 80.65 9.76 162.76 0.29 243.99 4.88 2.26-2.48 6.7-7.43 8.89-9.98l2.77-1.24c-3.79-14.57-4.66-29.51-4.59-44.37 0.07-241.22-0.15-482.45-0.22-723.6 91.94-1.97 188.77 8.16 268.91 56.83 3.79 25.5 1.24 51.51 1.67 77.22-0.72 196.28-0.36 392.48-0.29 588.68-79.41 32.93-165.23 51.58-251.49 47.79-2.99 14.28-18.58 10.34-28.71 10.78-81.09-5.9-162.61 3.43-243.55-4.66-5.18-46.63-1.97-93.47-2.77-140.25z"/>
	<path id="&lt;Compound Path&gt;" fill-rule="evenodd" class="s1" d="m15.22 189.3c219.37 0.3 438.73-0.29 658.03 0 140.17-0.58 282.61-3.57 419.21 32.86 106.73 25.43 211.43 73.88 285.88 156.57 77.3 83.13 111.11 199.7 106.59 311.67-2.77 133.4-69.58 263.6-176.89 342.93-64.77 48.02-140.1 80.73-218.57 98.58-76.79 17.12-154.89 29.94-233.72 30.23-131.72 1.46-263.52 0.73-395.31 0.88-0.07 104.84 0.14 209.75 0.07 314.59 0.37 56.24-1.24 113 8.45 168.59 6.92 39.05 30.89 75.47 65.86 94.71 31.26 17.26 67.18 23.09 102.29 26.23 0.51 14.64 0.8 29.36 0.95 44.15-207.35 0.07-414.62-0.95-621.97 0.43-0.14-14.93-0.14-29.8-0.22-44.73 55.16-3.93 115.99-21.71 146.81-71.33 26.08-48.66 25.64-105.78 26.66-159.55-0.07-361.14 0.59-722.29-0.36-1083.43-1.02-54.57-0.8-115.04-34.75-160.94-34.61-39.42-90.2-47.36-139.23-55.59 0.07-15.66 0.15-31.25 0.22-46.85zm445.07 66.3c0.29 279.4 0.37 558.73 0 838.13 82.84-0.65 165.68 0.58 248.44-0.87-2.19 2.55-6.63 7.5-8.89 9.98-81.23-4.59-163.34 4.88-243.99-4.88-6.92-25.87-3.57-53.04-4.15-79.49 0-252.22 0.72-504.52-0.59-756.82-1.6 232.77 0.08 465.62-0.65 698.39 0.8 46.78-2.41 93.62 2.77 140.25 80.94 8.09 162.46-1.24 243.55 4.66 10.13-0.44 25.72 3.5 28.71-10.78 86.26 3.79 172.08-14.86 251.49-47.79 54.06-24.85 102.44-62.3 138.72-109.58 66.88-87.94 91.73-202.46 81.09-311.31-7.29-106.66-56.1-214.34-143.89-278.23-80.65-62.81-185.05-84.74-285.16-90.05-102.43-1.9-204.94-0.51-307.45-1.61z"/>
</svg>